<svg width="1142" height="360" viewBox="0 0 1142 360" fill="none" xmlns="http://www.w3.org/2000/svg">
<path d="M47.349 356.37C35.5312 354.495 26.1094 351.536 19.0885 347.505C12.0625 343.474 7.125 338.255 4.27604 331.859C1.42708 325.464 0 317.677 0 308.5H53.6094C53.8854 312.25 54.6875 315.344 56.0104 317.781C57.3281 320.214 59.4479 322.161 62.3698 323.62C65.2917 325.078 69.1146 326.089 73.8438 326.646C78.5781 327.203 84.4167 327.479 91.3646 327.479C99.5625 327.479 106.177 327.203 111.177 326.646C116.193 326.089 120.042 325.286 122.766 324.245C125.469 323.203 127.312 321.885 128.286 320.281C129.255 318.682 129.75 316.844 129.75 314.755C129.75 310.724 128.042 308.047 124.63 306.724C121.229 305.401 116.885 304.396 111.604 303.698L52.9844 295.354C35.7396 292.995 23.1875 288.615 15.3333 282.214C7.47396 275.812 3.54688 266.359 3.54688 253.839C3.54688 247.443 4.83333 241.505 7.40625 236.016C9.97917 230.521 14.5677 225.786 21.1719 221.828C27.776 217.865 36.7135 214.734 47.9792 212.443C59.2396 210.146 73.5 209 90.7396 209C107.005 209 120.672 209.828 131.724 211.495C142.792 213.172 151.75 215.906 158.646 219.734C165.526 223.563 170.526 228.573 173.656 234.76C176.792 240.948 178.562 248.625 178.979 257.812H128.286C128.005 254.188 127.203 251.266 125.885 249.042C124.562 246.828 122.51 245.052 119.74 243.719C116.953 242.401 113.271 241.505 108.682 241.016C104.083 240.531 98.3906 240.281 91.5781 240.281C83.5104 240.281 77.0417 240.599 72.1771 241.229C67.3073 241.854 63.5885 242.656 61.0156 243.625C58.4427 244.599 56.7708 245.745 56.0104 247.068C55.2448 248.385 54.8594 249.813 54.8594 251.349C54.8594 254.401 56.1823 256.734 58.8229 258.333C61.4688 259.932 65.9167 261.214 72.1771 262.188L125.578 269.068C135.031 270.323 143.312 271.958 150.406 273.974C157.484 275.99 163.365 278.599 168.031 281.802C172.682 285 176.193 288.958 178.562 293.688C180.922 298.417 182.109 304.12 182.109 310.792C182.109 318.443 180.964 325.255 178.656 331.234C176.365 337.214 171.99 342.292 165.526 346.464C159.057 350.635 149.953 353.797 138.193 355.953C126.443 358.109 111.042 359.188 91.9896 359.188C74.0573 359.188 59.1719 358.245 47.349 356.37Z" fill="#50C778"/>
<path d="M324.99 251.761V356.058H273.469V251.761H208.802V212.12H389.656V251.761" fill="#50C778"/>
<path d="M469.537 212.12V292.016C469.537 297.86 470.313 302.693 471.844 306.516C473.365 310.339 475.656 313.365 478.724 315.589C481.776 317.813 485.646 319.381 490.297 320.282C494.964 321.188 500.349 321.641 506.469 321.641C512.578 321.641 517.979 321.188 522.63 320.282C527.297 319.381 531.151 317.813 534.203 315.589C537.271 313.365 539.563 310.339 541.099 306.516C542.62 302.693 543.391 297.86 543.391 292.016V212.12H594.912V297.86C594.912 308.287 593.245 317.365 589.912 325.084C586.563 332.797 581.349 339.162 574.255 344.167C567.167 349.177 558.016 352.933 546.833 355.433C535.63 357.933 522.177 359.188 506.469 359.188C490.75 359.188 477.297 357.969 466.099 355.537C454.912 353.104 445.724 349.349 438.563 344.271C431.406 339.198 426.151 332.797 422.818 325.084C419.485 317.365 417.818 308.287 417.818 297.86V212.12" fill="#50C778"/>
<path d="M735.708 320.177C741.417 319.344 746.073 317.641 749.682 315.068C753.297 312.495 755.953 308.74 757.62 303.802C759.287 298.865 760.125 292.365 760.125 284.292C760.125 275.532 759.287 268.657 757.62 263.657C755.953 258.641 753.271 254.896 749.578 252.386C745.896 249.881 741.203 248.323 735.5 247.693C729.802 247.068 722.912 246.745 714.86 246.745H684.818V321.433H714.86C723.057 321.433 730.005 321.011 735.708 320.177ZM724.245 212.12C738.844 212.12 751.63 213.068 762.62 214.948C773.604 216.813 782.75 220.36 790.057 225.573C797.349 230.802 802.844 238.094 806.526 247.479C810.219 256.865 812.057 269.146 812.057 284.292C812.057 298.344 810.349 309.99 806.953 319.24C803.537 328.49 798.255 335.823 791.099 341.25C783.938 346.672 774.818 350.495 763.766 352.719C752.708 354.943 739.537 356.058 724.245 356.058H633.287V212.12" fill="#50C778"/>
<path d="M850.229 356.057H901.964V212.125H850.229V356.057Z" fill="#50C778"/>
<path d="M1064.46 321.12C1070.71 320.214 1075.72 318.406 1079.47 315.693C1083.23 312.979 1085.91 309.125 1087.5 304.12C1089.1 299.109 1089.9 292.505 1089.9 284.292C1089.9 275.812 1089.1 269.042 1087.5 263.958C1085.91 258.88 1083.23 254.99 1079.47 252.281C1075.72 249.573 1070.71 247.802 1064.46 246.958C1058.19 246.12 1050.34 245.708 1040.89 245.708C1031.43 245.708 1023.56 246.12 1017.31 246.958C1011.06 247.802 1006.04 249.531 1002.3 252.172C998.536 254.812 995.859 258.682 994.255 263.745C992.656 268.828 991.859 275.682 991.859 284.292C991.859 292.505 992.656 299.109 994.255 304.12C995.859 309.125 998.536 312.979 1002.3 315.693C1006.04 318.406 1011.06 320.214 1017.31 321.12C1023.56 322.021 1031.43 322.474 1040.89 322.474C1050.34 322.474 1058.19 322.021 1064.46 321.12ZM994.151 355.641C981.365 353.276 970.964 349.245 962.979 343.542C954.979 337.839 949.167 330.193 945.552 320.599C941.937 311 940.125 298.901 940.125 284.292C940.125 269.146 942.073 256.693 945.964 246.958C949.87 237.229 955.911 229.547 964.125 223.906C972.323 218.281 982.792 214.385 995.51 212.229C1008.23 210.068 1023.36 209 1040.89 209C1058.54 209 1073.74 210.068 1086.46 212.229C1099.19 214.385 1109.65 218.281 1117.86 223.906C1126.06 229.547 1132.11 237.229 1136.01 246.958C1139.9 256.693 1141.84 269.146 1141.84 284.292C1141.84 298.901 1140.03 311 1136.42 320.599C1132.8 330.193 1127.01 337.839 1119.01 343.542C1111.01 349.245 1100.58 353.276 1087.71 355.641C1074.84 358.005 1059.24 359.188 1040.89 359.188C1022.53 359.188 1006.95 358.005 994.151 355.641Z" fill="#50C778"/>
<path d="M701.36 95.1462L679.042 46.7503L656.094 95.1462H701.36ZM704.907 0.854492L782.292 144.792H724.308L715.334 125.183H641.907L632.729 144.792H577.87L655.677 0.854492" fill="white"/>
<path d="M861.974 80.1253H907.24C915.308 80.1253 921.323 78.4274 925.282 75.016C929.245 71.6149 931.229 65.5212 931.229 56.7607C931.229 52.5889 930.813 49.1097 929.979 46.3337C929.146 43.5472 927.787 41.3597 925.912 39.7607C924.032 38.1618 921.532 37.0576 918.401 36.4274C915.271 35.8024 911.344 35.4795 906.615 35.4795H861.974V80.1253ZM968.256 100.568C958.313 110.026 943.052 114.756 922.464 114.756H861.974V144.792H810.448V0.854492H921.844C932.688 0.854492 941.974 1.87012 949.688 3.88053C957.407 5.89616 963.735 9.09408 968.672 13.4795C973.61 17.8545 977.261 23.5628 979.625 30.5889C981.99 37.5993 983.167 46.0576 983.167 55.9326C983.167 76.2295 978.198 91.1149 968.256 100.568Z" fill="white"/>
<path d="M248.625 82.651L281.771 0H313.87L348.068 81.1823L381.63 0H436.807L371.146 144.745H332.333L298.135 64.599L265.411 144.745H226.599L158 0H213.594" fill="white"/>
<path d="M442.448 79.7135H475.177C483.287 79.7135 489.511 78.1094 493.844 74.8802C498.182 71.6667 500.349 65.8698 500.349 57.4792C500.349 49.9219 498.427 44.6823 494.578 41.75C490.735 38.8021 484.198 37.3333 474.964 37.3333H403.073L355.557 144.745H335.146L382.448 0H490.073C511.886 0 527.797 3.90625 537.797 11.75C547.797 19.5729 552.797 32.5729 552.797 50.7604C552.797 56.776 552.063 62.5104 550.594 67.9635C549.12 73.4167 546.745 78.2812 543.458 82.5417C540.177 86.8125 535.943 90.4115 530.766 93.349C525.594 96.2865 519.229 98.3125 511.677 99.4323L558.042 144.745H495.735" fill="white"/>
</svg>
