<svg width="2072" height="151" viewBox="0 0 2072 151" fill="none" xmlns="http://www.w3.org/2000/svg">
<path d="M543.36 97.4118L521.042 49.016L498.094 97.4118H543.36ZM546.907 3.12012L624.292 147.058H566.308L557.334 127.448H483.907L474.729 147.058H419.87L497.677 3.12012" fill="white"/>
<path d="M703.974 82.391H749.24C757.308 82.391 763.323 80.693 767.282 77.2816C771.245 73.8805 773.229 67.7868 773.229 59.0264C773.229 54.8545 772.813 51.3753 771.979 48.5993C771.146 45.8128 769.787 43.6253 767.912 42.0264C766.032 40.4274 763.532 39.3232 760.401 38.693C757.271 38.068 753.344 37.7451 748.615 37.7451H703.974V82.391ZM810.256 102.834C800.313 112.292 785.052 117.021 764.464 117.021H703.974V147.058H652.448V3.12012H763.844C774.688 3.12012 783.974 4.13574 791.688 6.14616C799.407 8.16178 805.735 11.3597 810.672 15.7451C815.61 20.1201 819.261 25.8284 821.625 32.8545C823.99 39.8649 825.167 48.3232 825.167 58.1982C825.167 78.4951 820.198 93.3805 810.256 102.834Z" fill="white"/>
<path d="M976.604 147.37C964.787 145.495 955.365 142.536 948.344 138.505C941.318 134.474 936.38 129.255 933.531 122.859C930.682 116.464 929.255 108.677 929.255 99.5H982.865C983.141 103.25 983.943 106.344 985.266 108.781C986.583 111.214 988.703 113.161 991.625 114.62C994.547 116.078 998.37 117.089 1003.1 117.646C1007.83 118.203 1013.67 118.479 1020.62 118.479C1028.82 118.479 1035.43 118.203 1040.43 117.646C1045.45 117.089 1049.3 116.286 1052.02 115.245C1054.72 114.203 1056.57 112.885 1057.54 111.281C1058.51 109.682 1059.01 107.844 1059.01 105.755C1059.01 101.724 1057.3 99.0469 1053.89 97.724C1050.48 96.401 1046.14 95.3958 1040.86 94.6979L982.24 86.3542C964.995 83.9948 952.443 79.6146 944.589 73.2135C936.729 66.8125 932.802 57.3594 932.802 44.8385C932.802 38.4427 934.089 32.5052 936.662 27.0156C939.235 21.5208 943.823 16.7865 950.427 12.8281C957.031 8.86458 965.969 5.73438 977.235 3.44271C988.495 1.14583 1002.76 0 1019.99 0C1036.26 0 1049.93 0.828125 1060.98 2.49479C1072.05 4.17188 1081.01 6.90625 1087.9 10.7344C1094.78 14.5625 1099.78 19.5729 1102.91 25.7604C1106.05 31.9479 1107.82 39.625 1108.23 48.8125H1057.54C1057.26 45.1875 1056.46 42.2656 1055.14 40.0417C1053.82 37.8281 1051.77 36.0521 1048.99 34.7188C1046.21 33.401 1042.53 32.5052 1037.94 32.0156C1033.34 31.5313 1027.65 31.2812 1020.83 31.2812C1012.77 31.2812 1006.3 31.599 1001.43 32.2292C996.563 32.8542 992.844 33.6562 990.271 34.625C987.698 35.599 986.026 36.7448 985.266 38.0677C984.5 39.3854 984.115 40.8125 984.115 42.349C984.115 45.401 985.438 47.7344 988.078 49.3333C990.724 50.9323 995.172 52.2135 1001.43 53.1875L1054.83 60.0677C1064.29 61.3229 1072.57 62.9583 1079.66 64.974C1086.74 66.9896 1092.62 69.599 1097.29 72.8021C1101.94 76 1105.45 79.9583 1107.82 84.6875C1110.18 89.4167 1111.36 95.1198 1111.36 101.792C1111.36 109.443 1110.22 116.255 1107.91 122.234C1105.62 128.214 1101.24 133.292 1094.78 137.464C1088.31 141.635 1079.21 144.797 1067.45 146.953C1055.7 149.109 1040.3 150.188 1021.24 150.188C1003.31 150.188 988.427 149.245 976.604 147.37Z" fill="#50C778"/>
<path d="M1254.25 42.7607V147.058H1202.72V42.7607H1138.06V3.12012H1318.91V42.7607" fill="#50C778"/>
<path d="M1398.79 3.12012V83.016C1398.79 88.8597 1399.57 93.693 1401.1 97.516C1402.62 101.339 1404.91 104.365 1407.98 106.589C1411.03 108.813 1414.9 110.381 1419.55 111.282C1424.22 112.188 1429.6 112.641 1435.72 112.641C1441.83 112.641 1447.23 112.188 1451.89 111.282C1456.55 110.381 1460.41 108.813 1463.46 106.589C1466.53 104.365 1468.82 101.339 1470.35 97.516C1471.88 93.693 1472.65 88.8597 1472.65 83.016V3.12012H1524.17V88.8597C1524.17 99.2868 1522.5 108.365 1519.17 116.084C1515.82 123.797 1510.6 130.162 1503.51 135.167C1496.42 140.177 1487.27 143.933 1476.09 146.433C1464.89 148.933 1451.43 150.188 1435.72 150.188C1420.01 150.188 1406.55 148.969 1395.35 146.537C1384.17 144.104 1374.98 140.349 1367.82 135.271C1360.66 130.198 1355.41 123.797 1352.07 116.084C1348.74 108.365 1347.07 99.2868 1347.07 88.8597V3.12012" fill="#50C778"/>
<path d="M1664.96 111.177C1670.67 110.344 1675.33 108.641 1678.94 106.068C1682.55 103.495 1685.21 99.7399 1686.88 94.8024C1688.54 89.8649 1689.38 83.3649 1689.38 75.292C1689.38 66.5316 1688.54 59.6566 1686.88 54.6566C1685.21 49.641 1682.53 45.8962 1678.83 43.3857C1675.15 40.8805 1670.46 39.3232 1664.76 38.693C1659.06 38.068 1652.17 37.7451 1644.11 37.7451H1614.07V112.433H1644.11C1652.31 112.433 1659.26 112.011 1664.96 111.177ZM1653.5 3.12012C1668.1 3.12012 1680.89 4.06803 1691.88 5.94824C1702.86 7.81283 1712.01 11.3597 1719.31 16.5732C1726.6 21.8024 1732.1 29.0941 1735.78 38.4795C1739.47 47.8649 1741.31 60.1462 1741.31 75.292C1741.31 89.3441 1739.6 100.99 1736.21 110.24C1732.79 119.49 1727.51 126.823 1720.35 132.25C1713.19 137.672 1704.07 141.495 1693.02 143.719C1681.96 145.943 1668.79 147.058 1653.5 147.058H1562.54V3.12012" fill="#50C778"/>
<path d="M1779.48 147.057H1831.22V3.125H1779.48V147.057Z" fill="#50C778"/>
<path d="M1993.71 112.12C1999.96 111.214 2004.98 109.406 2008.72 106.693C2012.48 103.979 2015.17 100.125 2016.76 95.1198C2018.35 90.1094 2019.15 83.5052 2019.15 75.2917C2019.15 66.8125 2018.35 60.0417 2016.76 54.9583C2015.17 49.8802 2012.48 45.9896 2008.72 43.2812C2004.98 40.5729 1999.96 38.8021 1993.71 37.9583C1987.45 37.1198 1979.59 36.7083 1970.14 36.7083C1960.69 36.7083 1952.82 37.1198 1946.57 37.9583C1940.31 38.8021 1935.3 40.5312 1931.55 43.1719C1927.79 45.8125 1925.11 49.6823 1923.51 54.7448C1921.91 59.8281 1921.11 66.6823 1921.11 75.2917C1921.11 83.5052 1921.91 90.1094 1923.51 95.1198C1925.11 100.125 1927.79 103.979 1931.55 106.693C1935.3 109.406 1940.31 111.214 1946.57 112.12C1952.82 113.021 1960.69 113.474 1970.14 113.474C1979.59 113.474 1987.45 113.021 1993.71 112.12ZM1923.41 146.641C1910.62 144.276 1900.22 140.245 1892.23 134.542C1884.23 128.839 1878.42 121.193 1874.81 111.599C1871.19 102 1869.38 89.901 1869.38 75.2917C1869.38 60.1458 1871.33 47.6927 1875.22 37.9583C1879.13 28.2292 1885.17 20.5469 1893.38 14.9062C1901.58 9.28125 1912.05 5.38542 1924.77 3.22917C1937.48 1.06771 1952.62 0 1970.14 0C1987.79 0 2002.99 1.06771 2015.71 3.22917C2028.45 5.38542 2038.9 9.28125 2047.11 14.9062C2055.31 20.5469 2061.36 28.2292 2065.26 37.9583C2069.15 47.6927 2071.1 60.1458 2071.1 75.2917C2071.1 89.901 2069.29 102 2065.67 111.599C2062.06 121.193 2056.26 128.839 2048.26 134.542C2040.26 140.245 2029.83 144.276 2016.96 146.641C2004.1 149.005 1988.5 150.188 1970.14 150.188C1951.78 150.188 1936.21 149.005 1923.41 146.641Z" fill="#50C778"/>
<path d="M90.625 84.9167L123.771 2.26562H155.87L190.068 83.4479L223.63 2.26562H278.807L213.146 147.01H174.333L140.135 66.8646L107.411 147.01H68.599L0 2.26562H55.5938" fill="white"/>
<path d="M284.448 81.9792H317.177C325.287 81.9792 331.511 80.375 335.844 77.1458C340.182 73.9323 342.349 68.1354 342.349 59.7448C342.349 52.1875 340.427 46.9479 336.578 44.0156C332.735 41.0677 326.198 39.599 316.964 39.599H245.073L197.557 147.01H177.146L224.448 2.26562H332.073C353.886 2.26562 369.797 6.17188 379.797 14.0156C389.797 21.8385 394.797 34.8385 394.797 53.026C394.797 59.0417 394.063 64.776 392.594 70.2292C391.12 75.6823 388.745 80.5469 385.458 84.8073C382.177 89.0781 377.943 92.6771 372.766 95.6146C367.594 98.5521 361.229 100.578 353.677 101.698L400.042 147.01H337.735" fill="white"/>
</svg>
