<svg width="1367" height="442" viewBox="0 0 1367 442" fill="none" xmlns="http://www.w3.org/2000/svg">
<path d="M45.6042 410.271L69.7396 347.604H82.5417L107.339 410.006L130.276 347.604H151.875L115.208 439.61H101.339L76.2708 375.87L51.7396 439.61H37.6042L0 347.604H21.8698" fill="white"/>
<path d="M212.666 397.339H239.869C246.093 397.339 250.823 396.115 254.067 393.672C257.317 391.229 258.937 386.625 258.937 379.87C258.937 376.672 258.604 374.073 257.937 372.068C257.271 370.068 256.182 368.474 254.672 367.271C253.156 366.068 251.182 365.25 248.734 364.802C246.291 364.36 243.25 364.136 239.604 364.136H207.468V439.61H187.333V347.604H243.338C249.651 347.604 255.067 348.157 259.604 349.271C264.135 350.381 267.869 352.183 270.807 354.667C273.739 357.157 275.896 360.313 277.271 364.136C278.651 367.959 279.338 372.625 279.338 378.141C279.338 388.094 276.76 395.693 271.604 400.938C266.448 406.183 258.182 408.761 246.802 408.672L281.073 439.61H255.067" fill="white"/>
<path d="M387.068 409.339L368 368.537L348.536 409.339H387.068ZM377.068 347.604L423.74 439.61H401.203L393.734 423.74H341.599L334 439.61H312.531L359.604 347.604" fill="white"/>
<path d="M478.802 400.542H512.937C519.068 400.542 523.693 399.094 526.802 396.209C529.917 393.318 531.469 388.229 531.469 380.938C531.469 377.474 531.161 374.604 530.536 372.339C529.917 370.068 528.87 368.271 527.401 366.938C525.937 365.604 524.005 364.672 521.604 364.136C519.203 363.604 516.224 363.339 512.667 363.339H478.802V400.542ZM543.14 407.74C537.318 413.427 528.448 416.276 516.536 416.276H478.802V439.61H458.667V347.604H516.271C522.583 347.604 527.984 348.203 532.469 349.401C536.958 350.604 540.625 352.537 543.474 355.203C546.318 357.87 548.427 361.292 549.807 365.469C551.182 369.651 551.87 374.761 551.87 380.808C551.87 393.073 548.958 402.052 543.14 407.74Z" fill="white"/>
<path d="M676.666 440.006C670.442 438.943 665.265 437.162 661.135 434.672C657 432.188 653.885 428.922 651.796 424.875C649.708 420.828 648.619 415.828 648.531 409.875H669.598C669.776 413.339 670.578 416.141 672 418.271C673.421 420.407 675.354 422.073 677.802 423.271C680.239 424.474 683.197 425.297 686.666 425.74C690.135 426.183 694.041 426.407 698.401 426.407C704.265 426.407 709.026 426.12 712.666 425.542C716.317 424.964 719.161 424.141 721.197 423.073C723.255 422.006 724.651 420.698 725.401 419.141C726.161 417.584 726.531 415.828 726.531 413.875C726.531 411.828 726.135 410.183 725.333 408.938C724.531 407.698 723.453 406.672 722.067 405.87C720.692 405.073 719.026 404.448 717.067 404.006C715.119 403.563 712.984 403.162 710.666 402.808L678.666 397.87C669.333 396.36 662.489 393.474 658.13 389.203C653.776 384.938 651.598 379.427 651.598 372.672C651.598 368.938 652.354 365.448 653.864 362.203C655.375 358.959 657.932 356.094 661.531 353.604C665.135 351.115 669.953 349.157 676 347.735C682.041 346.313 689.598 345.604 698.666 345.604C706.494 345.604 713.317 346.115 719.135 347.136C724.958 348.157 729.854 349.87 733.802 352.271C737.76 354.667 740.802 357.87 742.932 361.87C745.067 365.87 746.265 370.808 746.531 376.672H726.265C726 373.292 725.197 370.558 723.864 368.474C722.531 366.381 720.692 364.782 718.333 363.672C715.984 362.558 713.187 361.802 709.932 361.401C706.692 361.006 702.973 360.802 698.802 360.802C693.026 360.802 688.359 361.115 684.802 361.735C681.239 362.36 678.505 363.203 676.598 364.271C674.687 365.339 673.421 366.537 672.802 367.87C672.177 369.203 671.864 370.625 671.864 372.141C671.864 374.979 672.864 377.25 674.864 378.938C676.864 380.625 680.171 381.828 684.802 382.537L716.135 387.339C721.291 388.141 725.802 389.141 729.666 390.339C733.531 391.537 736.76 393.115 739.333 395.073C741.921 397.032 743.854 399.448 745.135 402.339C746.427 405.229 747.067 408.761 747.067 412.938C747.067 417.474 746.333 421.495 744.864 425.006C743.401 428.516 740.828 431.521 737.135 434.006C733.453 436.495 728.494 438.386 722.265 439.672C716.052 440.964 708.135 441.61 698.531 441.61C690.171 441.61 682.89 441.073 676.666 440.006Z" fill="white"/>
<path d="M841.469 364.401V439.61H821.333V364.401H781.333V347.604H881.599V364.401" fill="white"/>
<path d="M937.068 347.604V402.006C937.068 406.542 937.641 410.297 938.802 413.271C939.948 416.25 941.677 418.604 944 420.339C946.307 422.073 949.172 423.297 952.599 424.006C956.026 424.719 960.042 425.073 964.667 425.073C969.292 425.073 973.333 424.719 976.802 424.006C980.266 423.297 983.162 422.073 985.469 420.339C987.771 418.604 989.505 416.25 990.667 413.271C991.828 410.297 992.401 406.542 992.401 402.006V347.604H1012.53V403.604C1012.53 416.495 1008.71 426.052 1001.07 432.276C993.427 438.495 981.292 441.61 964.667 441.61C948.136 441.61 936.011 438.521 928.333 432.339C920.641 426.162 916.802 416.584 916.802 403.604V347.604" fill="white"/>
<path d="M1113.53 422.875C1117.67 422.209 1121.1 420.808 1123.86 418.672C1126.61 416.542 1128.71 413.495 1130.14 409.542C1131.56 405.584 1132.27 400.318 1132.27 393.74C1132.27 386.625 1131.56 381.052 1130.14 377.006C1128.71 372.959 1126.6 369.917 1123.8 367.87C1121 365.828 1117.53 364.563 1113.4 364.068C1109.27 363.584 1104.48 363.339 1099.07 363.339H1074.8V423.875H1099.07C1104.57 423.875 1109.4 423.542 1113.53 422.875ZM1101.33 347.604C1109.51 347.604 1116.8 348.203 1123.2 349.401C1129.6 350.604 1134.97 352.87 1139.33 356.203C1143.69 359.537 1147 364.203 1149.27 370.203C1151.53 376.203 1152.67 384.052 1152.67 393.74C1152.67 402.719 1151.6 410.162 1149.47 416.073C1147.33 421.985 1144.14 426.677 1139.86 430.141C1135.6 433.61 1130.27 436.052 1123.86 437.474C1117.47 438.896 1109.95 439.61 1101.33 439.61H1054.67V347.604" fill="white"/>
<path d="M1194.26 439.61H1214.52V347.604H1194.26V439.61Z" fill="white"/>
<path d="M1326.6 424.209C1331 423.453 1334.61 421.959 1337.47 419.74C1340.31 417.516 1342.44 414.318 1343.86 410.141C1345.28 405.959 1346 400.495 1346 393.74C1346 386.719 1345.28 381.094 1343.86 376.87C1342.44 372.651 1340.28 369.427 1337.4 367.203C1334.51 364.985 1330.88 363.537 1326.53 362.87C1322.17 362.203 1317.07 361.87 1311.19 361.87C1305.32 361.87 1300.21 362.203 1295.85 362.87C1291.51 363.537 1287.88 364.985 1284.98 367.203C1282.1 369.427 1279.97 372.625 1278.59 376.808C1277.21 380.985 1276.52 386.625 1276.52 393.74C1276.52 400.495 1277.21 405.959 1278.59 410.141C1279.97 414.318 1282.1 417.516 1284.98 419.74C1287.88 421.959 1291.51 423.453 1295.85 424.209C1300.21 424.964 1305.32 425.344 1311.19 425.344C1317.07 425.344 1322.2 424.964 1326.6 424.209ZM1286.52 439.344C1279.59 437.834 1273.88 435.256 1269.39 431.61C1264.91 427.964 1261.57 423.073 1259.39 416.938C1257.21 410.808 1256.12 403.073 1256.12 393.74C1256.12 384.052 1257.31 376.094 1259.65 369.87C1262.01 363.651 1265.48 358.735 1270.05 355.136C1274.64 351.537 1280.37 349.047 1287.26 347.672C1294.15 346.292 1302.12 345.604 1311.19 345.604C1320.27 345.604 1328.24 346.292 1335.14 347.672C1342.01 349.047 1347.77 351.537 1352.4 355.136C1357.01 358.735 1360.48 363.651 1362.8 369.87C1365.1 376.094 1366.27 384.052 1366.27 393.74C1366.27 403.073 1365.17 410.808 1363 416.938C1360.81 423.073 1357.48 427.964 1353 431.61C1348.51 435.256 1342.8 437.834 1335.86 439.344C1328.93 440.854 1320.71 441.61 1311.19 441.61C1301.68 441.61 1293.45 440.854 1286.52 439.344Z" fill="white"/>
<path d="M506.979 133.344L560.453 0H612.234L667.406 130.974L721.557 0H810.573L704.64 233.516H642.026L586.854 104.24L534.057 233.516H471.442L360.771 0H450.458" fill="#50C778"/>
<path d="M819.667 128.599H872.479C885.557 128.599 895.599 126.01 902.588 120.823C909.588 115.625 913.078 106.266 913.078 92.7292C913.078 80.5469 909.984 72.0781 903.771 67.3438C897.573 62.6094 887.026 60.2396 872.135 60.2396H756.146L679.495 233.516H646.557L722.88 0H896.505C931.693 0 957.375 6.30729 973.505 18.9427C989.625 31.5833 997.693 52.5573 997.693 81.8906C997.693 91.599 996.521 100.849 994.146 109.651C991.771 118.453 987.948 126.292 982.64 133.172C977.333 140.052 970.505 145.865 962.161 150.599C953.812 155.344 943.547 158.609 931.359 160.427L1006.16 233.516H905.64" fill="#50C778"/>
</svg>
