<svg width="1143" height="151" viewBox="0 0 1143 151" fill="none" xmlns="http://www.w3.org/2000/svg">
<path d="M47.6043 147.37C35.7866 145.495 26.3647 142.536 19.3439 138.505C12.3179 134.474 7.38037 129.255 4.53141 122.859C1.68246 116.464 0.255371 108.677 0.255371 99.5H53.8647C54.1408 103.25 54.9429 106.344 56.2658 108.781C57.5835 111.214 59.7033 113.161 62.6252 114.62C65.547 116.078 69.37 117.089 74.0991 117.646C78.8335 118.203 84.672 118.479 91.62 118.479C99.8179 118.479 106.432 118.203 111.432 117.646C116.448 117.089 120.297 116.286 123.021 115.245C125.724 114.203 127.568 112.885 128.542 111.281C129.511 109.682 130.005 107.844 130.005 105.755C130.005 101.724 128.297 99.0469 124.886 97.724C121.485 96.401 117.141 95.3958 111.86 94.6979L53.2397 86.3542C35.995 83.9948 23.4429 79.6146 15.5887 73.2135C7.72933 66.8125 3.80225 57.3594 3.80225 44.8385C3.80225 38.4427 5.0887 32.5052 7.66162 27.0156C10.2345 21.5208 14.8231 16.7865 21.4272 12.8281C28.0314 8.86458 36.9689 5.73438 48.2345 3.44271C59.495 1.14583 73.7554 0 90.995 0C107.261 0 120.927 0.828125 131.979 2.49479C143.047 4.17188 152.005 6.90625 158.901 10.7344C165.781 14.5625 170.781 19.5729 173.912 25.7604C177.047 31.9479 178.818 39.625 179.235 48.8125H128.542C128.261 45.1875 127.458 42.2656 126.141 40.0417C124.818 37.8281 122.766 36.0521 119.995 34.7188C117.208 33.401 113.526 32.5052 108.938 32.0156C104.339 31.5313 98.646 31.2812 91.8335 31.2812C83.7658 31.2812 77.297 31.599 72.4325 32.2292C67.5627 32.8542 63.8439 33.6562 61.271 34.625C58.6981 35.599 57.0262 36.7448 56.2658 38.0677C55.5002 39.3854 55.1147 40.8125 55.1147 42.349C55.1147 45.401 56.4377 47.7344 59.0783 49.3333C61.7241 50.9323 66.172 52.2135 72.4325 53.1875L125.833 60.0677C135.287 61.3229 143.568 62.9583 150.662 64.974C157.74 66.9896 163.62 69.599 168.287 72.8021C172.938 76 176.448 79.9583 178.818 84.6875C181.177 89.4167 182.365 95.1198 182.365 101.792C182.365 109.443 181.219 116.255 178.912 122.234C176.62 128.214 172.245 133.292 165.781 137.464C159.313 141.635 150.208 144.797 138.448 146.953C126.698 149.109 111.297 150.188 92.245 150.188C74.3127 150.188 59.4272 149.245 47.6043 147.37Z" fill="#50C778"/>
<path d="M325.245 42.7607V147.058H273.724V42.7607H209.058V3.12012H389.912V42.7607" fill="#50C778"/>
<path d="M469.792 3.12012V83.016C469.792 88.8597 470.568 93.693 472.099 97.516C473.62 101.339 475.912 104.365 478.979 106.589C482.032 108.813 485.901 110.381 490.552 111.282C495.219 112.188 500.604 112.641 506.724 112.641C512.834 112.641 518.235 112.188 522.886 111.282C527.552 110.381 531.407 108.813 534.459 106.589C537.526 104.365 539.818 101.339 541.354 97.516C542.875 93.693 543.646 88.8597 543.646 83.016V3.12012H595.167V88.8597C595.167 99.2868 593.5 108.365 590.167 116.084C586.818 123.797 581.604 130.162 574.511 135.167C567.422 140.177 558.271 143.933 547.089 146.433C535.886 148.933 522.433 150.188 506.724 150.188C491.006 150.188 477.552 148.969 466.354 146.537C455.167 144.104 445.979 140.349 438.818 135.271C431.662 130.198 426.407 123.797 423.073 116.084C419.74 108.365 418.073 99.2868 418.073 88.8597V3.12012" fill="#50C778"/>
<path d="M735.964 111.177C741.672 110.344 746.328 108.641 749.938 106.068C753.552 103.495 756.209 99.7399 757.875 94.8024C759.542 89.8649 760.381 83.3649 760.381 75.292C760.381 66.5316 759.542 59.6566 757.875 54.6566C756.209 49.641 753.526 45.8962 749.834 43.3857C746.151 40.8805 741.459 39.3232 735.756 38.693C730.058 38.068 723.167 37.7451 715.115 37.7451H685.073V112.433H715.115C723.313 112.433 730.261 112.011 735.964 111.177ZM724.5 3.12012C739.099 3.12012 751.886 4.06803 762.875 5.94824C773.86 7.81283 783.006 11.3597 790.313 16.5732C797.604 21.8024 803.099 29.0941 806.782 38.4795C810.474 47.8649 812.313 60.1462 812.313 75.292C812.313 89.3441 810.604 100.99 807.209 110.24C803.792 119.49 798.511 126.823 791.354 132.25C784.193 137.672 775.073 141.495 764.021 143.719C752.964 145.943 739.792 147.058 724.5 147.058H633.542V3.12012" fill="#50C778"/>
<path d="M850.485 147.057H902.219V3.125H850.485V147.057Z" fill="#50C778"/>
<path d="M1064.71 112.12C1070.96 111.214 1075.98 109.406 1079.72 106.693C1083.48 103.979 1086.17 100.125 1087.76 95.1198C1089.35 90.1094 1090.15 83.5052 1090.15 75.2917C1090.15 66.8125 1089.35 60.0417 1087.76 54.9583C1086.17 49.8802 1083.48 45.9896 1079.72 43.2812C1075.98 40.5729 1070.96 38.8021 1064.71 37.9583C1058.45 37.1198 1050.59 36.7083 1041.14 36.7083C1031.69 36.7083 1023.82 37.1198 1017.57 37.9583C1011.31 38.8021 1006.3 40.5312 1002.55 43.1719C998.792 45.8125 996.115 49.6823 994.511 54.7448C992.912 59.8281 992.115 66.6823 992.115 75.2917C992.115 83.5052 992.912 90.1094 994.511 95.1198C996.115 100.125 998.792 103.979 1002.55 106.693C1006.3 109.406 1011.31 111.214 1017.57 112.12C1023.82 113.021 1031.69 113.474 1041.14 113.474C1050.59 113.474 1058.45 113.021 1064.71 112.12ZM994.406 146.641C981.62 144.276 971.219 140.245 963.235 134.542C955.235 128.839 949.422 121.193 945.807 111.599C942.193 102 940.38 89.901 940.38 75.2917C940.38 60.1458 942.328 47.6927 946.219 37.9583C950.125 28.2292 956.167 20.5469 964.38 14.9062C972.578 9.28125 983.047 5.38542 995.766 3.22917C1008.48 1.06771 1023.62 0 1041.14 0C1058.79 0 1073.99 1.06771 1086.71 3.22917C1099.45 5.38542 1109.9 9.28125 1118.11 14.9062C1126.31 20.5469 1132.36 28.2292 1136.26 37.9583C1140.15 47.6927 1142.1 60.1458 1142.1 75.2917C1142.1 89.901 1140.29 102 1136.67 111.599C1133.06 121.193 1127.26 128.839 1119.26 134.542C1111.26 140.245 1100.83 144.276 1087.96 146.641C1075.1 149.005 1059.5 150.188 1041.14 150.188C1022.78 150.188 1007.21 149.005 994.406 146.641Z" fill="#50C778"/>
</svg>
