<svg width="20" height="20" viewBox="0 0 20 20" fill="none" xmlns="http://www.w3.org/2000/svg">
<path d="M1 10C1 11.1819 1.23279 12.3522 1.68508 13.4442C2.13738 14.5361 2.80031 15.5282 3.63604 16.364C4.47177 17.1997 5.46392 17.8626 6.55585 18.3149C7.64778 18.7672 8.8181 19 10 19C11.1819 19 12.3522 18.7672 13.4442 18.3149C14.5361 17.8626 15.5282 17.1997 16.364 16.364C17.1997 15.5282 17.8626 14.5361 18.3149 13.4442C18.7672 12.3522 19 11.1819 19 10C19 8.8181 18.7672 7.64778 18.3149 6.55585C17.8626 5.46392 17.1997 4.47177 16.364 3.63604C15.5282 2.80031 14.5361 2.13738 13.4442 1.68508C12.3522 1.23279 11.1819 1 10 1C8.8181 1 7.64778 1.23279 6.55585 1.68508C5.46392 2.13738 4.47177 2.80031 3.63604 3.63604C2.80031 4.47177 2.13738 5.46392 1.68508 6.55585C1.23279 7.64778 1 8.8181 1 10Z" stroke="#50C878" stroke-width="2" stroke-linecap="round" stroke-linejoin="round"/>
<path d="M7 10.0001C7 10.7957 7.31607 11.5588 7.87868 12.1214C8.44129 12.684 9.20435 13.0001 10 13.0001C10.7956 13.0001 11.5587 12.684 12.1213 12.1214C12.6839 11.5588 13 10.7957 13 10.0001M7 10.0001C7 9.20445 7.31607 8.44139 7.87868 7.87878C8.44129 7.31617 9.20435 7.0001 10 7.0001C10.7956 7.0001 11.5587 7.31617 12.1213 7.87878C12.6839 8.44139 13 9.20445 13 10.0001M7 10.0001H1M13 10.0001H19M11.6 7.4001L15 2.6001M8.4 12.6001L5 17.4001M5 2.6001L8.4 7.4001M11.6 12.6001L15 17.4001" stroke="#50C878" stroke-width="2" stroke-linecap="round" stroke-linejoin="round"/>
</svg>
