<svg width="826" height="146" viewBox="0 0 826 146" fill="none" xmlns="http://www.w3.org/2000/svg">
<path d="M543.36 95.4118L521.042 47.016L498.094 95.4118H543.36ZM546.907 1.12012L624.292 145.058H566.308L557.334 125.448H483.907L474.729 145.058H419.87L497.677 1.12012" fill="white"/>
<path d="M703.974 80.391H749.24C757.308 80.391 763.323 78.693 767.282 75.2816C771.245 71.8805 773.229 65.7868 773.229 57.0264C773.229 52.8545 772.813 49.3753 771.979 46.5993C771.146 43.8128 769.787 41.6253 767.912 40.0264C766.032 38.4274 763.532 37.3232 760.401 36.693C757.271 36.068 753.344 35.7451 748.615 35.7451H703.974V80.391ZM810.256 100.834C800.313 110.292 785.052 115.021 764.464 115.021H703.974V145.058H652.448V1.12012H763.844C774.688 1.12012 783.974 2.13574 791.688 4.14616C799.407 6.16178 805.735 9.3597 810.672 13.7451C815.61 18.1201 819.261 23.8284 821.625 30.8545C823.99 37.8649 825.167 46.3232 825.167 56.1982C825.167 76.4951 820.198 91.3805 810.256 100.834Z" fill="white"/>
<path d="M90.625 82.9167L123.771 0.265625H155.87L190.068 81.4479L223.63 0.265625H278.807L213.146 145.01H174.333L140.135 64.8646L107.411 145.01H68.599L0 0.265625H55.5938" fill="white"/>
<path d="M284.448 79.9792H317.177C325.287 79.9792 331.511 78.375 335.844 75.1458C340.182 71.9323 342.349 66.1354 342.349 57.7448C342.349 50.1875 340.427 44.9479 336.578 42.0156C332.735 39.0677 326.198 37.599 316.964 37.599H245.073L197.557 145.01H177.146L224.448 0.265625H332.073C353.886 0.265625 369.797 4.17188 379.797 12.0156C389.797 19.8385 394.797 32.8385 394.797 51.026C394.797 57.0417 394.063 62.776 392.594 68.2292C391.12 73.6823 388.745 78.5469 385.458 82.8073C382.177 87.0781 377.943 90.6771 372.766 93.6146C367.594 96.5521 361.229 98.5781 353.677 99.6979L400.042 145.01H337.735" fill="white"/>
</svg>
