<svg width="647" height="234" viewBox="0 0 647 234" fill="none" xmlns="http://www.w3.org/2000/svg">
<path d="M146.979 133.344L200.453 0H252.234L307.406 130.974L361.557 0H450.573L344.64 233.516H282.026L226.854 104.24L174.057 233.516H111.442L0.770508 0H90.458" fill="#50C778"/>
<path d="M459.667 128.599H512.479C525.557 128.599 535.599 126.01 542.588 120.823C549.588 115.625 553.078 106.266 553.078 92.7292C553.078 80.5469 549.984 72.0781 543.771 67.3438C537.573 62.6094 527.026 60.2396 512.135 60.2396H396.146L319.495 233.516H286.557L362.88 0H536.505C571.693 0 597.375 6.30729 613.505 18.9427C629.625 31.5833 637.693 52.5573 637.693 81.8906C637.693 91.599 636.521 100.849 634.146 109.651C631.771 118.453 627.948 126.292 622.64 133.172C617.333 140.052 610.505 145.865 602.161 150.599C593.812 155.344 583.547 158.609 571.359 160.427L646.161 233.516H545.64" fill="#50C778"/>
</svg>
